<svg width="88" height="88" viewBox="0 0 88 88" fill="none" xmlns="http://www.w3.org/2000/svg">
<path d="M53.2206 32.5215L50.0491 32.0597C49.9519 32.0597 49.8547 32.0597 49.8547 32.1567L48.512 33.8793C48.4354 33.9916 48.401 34.1274 48.4148 34.2626C48.4148 34.3596 48.3176 34.5535 48.225 34.4565L47.1648 34.1702C46.9749 34.1702 46.7805 34.1702 46.7018 34.3596L42.3775 39.9014C42.2803 39.9984 42.1831 39.9984 41.9933 39.9984L40.3589 39.2318C40.2896 39.1883 40.2093 39.1653 40.1274 39.1653C40.0455 39.1653 39.9653 39.1883 39.8959 39.2318L38.9885 39.8137C38.9196 39.8582 38.8392 39.8819 38.757 39.8819C38.6749 39.8819 38.5945 39.8582 38.5255 39.8137L38.1413 39.6243C38.0787 39.5961 38.0109 39.5812 37.9423 39.5805C37.8736 39.5798 37.8056 39.5934 37.7425 39.6203C37.6794 39.6472 37.6225 39.6869 37.5756 39.7369C37.5287 39.7869 37.4927 39.8461 37.4699 39.9107L37.1782 41.2499C37.1436 41.3921 37.153 41.5415 37.205 41.6783C37.2571 41.8152 37.3494 41.9331 37.4699 42.0166L38.2385 42.4784L40.2525 43.7253L41.2155 44.298C41.3506 44.3771 41.5077 44.4109 41.6636 44.3943C41.8195 44.3776 41.9659 44.3115 42.0812 44.2056L43.7109 42.7647C43.8513 42.685 44.0136 42.6526 44.1739 42.6723L44.6369 42.9587C44.8267 43.0557 45.0212 43.0557 45.0999 42.8617L45.961 42.0951C46.0203 42.0356 46.0957 41.9947 46.178 41.9775C46.2602 41.9602 46.3458 41.9674 46.424 41.9981L47.6741 42.5754C47.7704 42.6069 47.8731 42.6145 47.9731 42.5976C48.0731 42.5807 48.1675 42.5398 48.2481 42.4784L48.8269 41.7118L53.1511 36.1699C53.3409 35.879 53.2437 35.4956 52.8594 35.4956L51.952 35.2924C51.7575 35.2924 51.6649 35.0061 51.7575 34.8306L53.2946 33.011C53.5076 32.8171 53.4104 32.5215 53.2206 32.5215Z" fill="white"/>
<path d="M38.808 43.7438C38.7107 43.6468 38.6182 43.7438 38.6182 43.8408L39.0811 45.0831V45.374L38.6969 46.9996C38.6903 47.0523 38.6956 47.1057 38.7124 47.1561C38.7292 47.2064 38.7571 47.2524 38.7941 47.2906L39.9469 48.1496C40.0001 48.196 40.0684 48.2216 40.139 48.2216C40.2097 48.2216 40.278 48.196 40.3312 48.1496L41.5812 47.0966C41.6186 47.0598 41.6639 47.032 41.7136 47.0152C41.7633 46.9984 41.8162 46.9931 41.8683 46.9996L43.2156 46.8103C43.3082 46.8103 43.3082 46.7133 43.2156 46.6163L38.808 43.7438Z" fill="white"/>
<path d="M38.4236 47.8631C38.4074 47.8402 38.3859 47.8215 38.3609 47.8087C38.3359 47.7958 38.3082 47.7891 38.2801 47.7891C38.252 47.7891 38.2243 47.7958 38.1993 47.8087C38.1744 47.8215 38.1529 47.8402 38.1366 47.8631L37.1736 48.3249C37.161 48.3249 37.1486 48.3274 37.137 48.3323C37.1255 48.3373 37.1151 48.3445 37.1064 48.3535C37.0978 48.3626 37.091 48.3734 37.0867 48.3851C37.0823 48.3968 37.0804 48.4093 37.081 48.4219L34.9652 53.5943H35.0624L35.5254 53.4049V53.4973L33.9883 55.9911C33.9883 56.0881 33.9883 56.0881 34.0809 56.0881L39.4607 50.6248C39.5579 50.6248 39.558 50.5278 39.558 50.4308L39.6552 48.9945C39.6552 48.8975 39.6552 48.8052 39.558 48.8052L38.4236 47.8631Z" fill="white"/>
<path d="M32.9974 88.0001L30.8677 84.0238L34.5715 81.4607L35.2845 82.4536L34.1132 83.2433C33.9131 83.3868 33.7044 83.5179 33.4882 83.6359C33.2927 83.7467 33.0883 83.841 32.877 83.9176L36.8587 84.8782L36.5855 86.005L32.5946 85.0398C32.6994 85.1471 32.7968 85.2613 32.8863 85.3816C32.9742 85.497 33.0576 85.6217 33.1409 85.7556L33.3956 86.2175L34.0715 87.4551L32.9974 88.0001Z" fill="#FFCD1E"/>
<path d="M15.5523 72.8062C16.1866 72.0812 17.1959 72.0073 18.0987 72.8062L19.9506 74.4272L16.2468 78.6436L14.7745 77.3182C13.8115 76.4777 13.4596 75.5956 14.1356 74.8198C14.2812 74.6375 14.4773 74.5018 14.6995 74.4296C14.9217 74.3573 15.1603 74.3517 15.3856 74.4134C15.2195 74.1687 15.1451 73.8734 15.1756 73.5795C15.206 73.2856 15.3394 73.0118 15.5523 72.8062ZM16.8764 76.3253L16.1264 75.6741C15.6634 75.2631 15.2653 75.1476 15.0245 75.4247C14.7838 75.7018 14.9504 76.0667 15.4273 76.4777L16.1727 77.1289L16.8764 76.3253ZM16.2746 73.5913C15.9458 73.97 16.1218 74.4318 16.6403 74.8844L17.4922 75.6233L18.4598 74.5196L17.6079 73.7807C17.0894 73.3281 16.6079 73.208 16.2746 73.5913Z" fill="white"/>
<path d="M7.20947 68.9547L9.76514 67.015C10.9411 66.1191 12.2884 66.1375 13.1542 67.269C14.0199 68.4005 13.6773 69.7028 12.5014 70.5941L9.9457 72.5338L9.30216 71.6933L11.9597 69.6705C12.1031 69.5834 12.2267 69.4672 12.3223 69.3294C12.4178 69.1917 12.4834 69.0355 12.5145 68.8708C12.5457 68.7062 12.5419 68.5369 12.5033 68.3739C12.4647 68.2108 12.3922 68.0577 12.2905 67.9244C12.1888 67.791 12.0602 67.6805 11.9129 67.6C11.7657 67.5194 11.6031 67.4706 11.4357 67.4567C11.2683 67.4428 11.0999 67.4642 10.9413 67.5193C10.7828 67.5745 10.6376 67.6623 10.5152 67.777L7.85302 69.7952L7.20947 68.9547Z" fill="white"/>
<path d="M9.8438 62.429L4.88063 65.0382L4.38525 64.1146L9.35767 61.4915L9.8438 62.429Z" fill="white"/>
<path d="M5.69093 55.2846L6.70024 54.9382L7.78361 58.0648L2.47321 59.912L2.12598 58.9099L6.42245 57.4321L5.69093 55.2846Z" fill="white"/>
<path d="M2.41298 47.2491C3.95008 47.0366 5.33439 47.9187 5.58903 49.7614L5.84368 51.6087L0.287898 52.3707L0.0378844 50.5234C-0.221385 48.6299 0.880513 47.4569 2.41298 47.2491ZM2.55651 48.2974C2.33133 48.3176 2.11267 48.3834 1.91397 48.491C1.71527 48.5986 1.54073 48.7456 1.40109 48.9229C1.26145 49.1003 1.15967 49.3043 1.10199 49.5223C1.04431 49.7404 1.03196 49.9679 1.0657 50.1909L1.19534 51.1607L4.63992 50.6989L4.50566 49.7337C4.47824 49.5099 4.40551 49.2941 4.29187 49.0993C4.17823 48.9045 4.02607 48.7347 3.84463 48.6004C3.66318 48.466 3.45624 48.3699 3.2364 48.3178C3.01655 48.2657 2.78838 48.2588 2.56576 48.2974H2.55651Z" fill="white"/>
<path d="M0.811023 33.4451L1.86199 33.6529L1.57494 35.0845L6.03346 35.9712L5.82511 37.0103L1.36659 36.1236L1.07955 37.5507L0.0332031 37.3428L0.811023 33.4451Z" fill="white"/>
<path d="M3.87605 24.9524L9.05218 27.1183L8.64013 28.0974L6.54283 27.2199L5.61686 29.4182L7.71417 30.2957L7.30211 31.2701L2.12598 29.1042L2.53802 28.1251L4.63071 29.0026L5.55667 26.8043L3.46399 25.9268L3.87605 24.9524Z" fill="white"/>
<path d="M7.70008 20.5141L8.69549 21.1884L9.81128 19.5443L10.6956 20.14L9.57978 21.7841L10.5752 22.4584L11.9178 20.4864L12.8021 21.0822L10.8622 23.9316L6.23242 20.7912L8.16768 17.9418L9.05198 18.5421L7.70008 20.5141Z" fill="white"/>
<path d="M18.8904 14.6351L15.4551 10.2062L18.1867 8.10034L18.8395 8.94086L16.9505 10.4002L17.6913 11.3516L19.2654 10.1324L19.9228 10.9775L18.3394 12.2013L19.7284 13.9932L18.8904 14.6351Z" fill="white"/>
<path d="M25.9276 3.70374L27.3675 6.56241C28.0295 7.8786 27.7656 9.19479 26.4924 9.83672C25.2192 10.4787 23.997 9.90138 23.3349 8.58057L21.895 5.73575L22.8441 5.27393L24.3442 8.24806C24.4159 8.38846 24.5147 8.51338 24.6348 8.61571C24.755 8.71803 24.8942 8.79575 25.0444 8.84442C25.1947 8.8931 25.3531 8.91177 25.5106 8.89939C25.6681 8.887 25.8216 8.84379 25.9623 8.77222C26.1031 8.70066 26.2283 8.60214 26.3309 8.4823C26.4335 8.36245 26.5114 8.22363 26.5602 8.07375C26.609 7.92387 26.6277 7.76587 26.6153 7.60877C26.6029 7.45167 26.5595 7.29856 26.4878 7.15816L24.9877 4.17941L25.9276 3.70374Z" fill="white"/>
<path d="M33.8956 1.08997L34.178 2.11521L32.789 2.50314L33.9974 6.87659L32.9696 7.15368L31.7658 2.78485L30.3769 3.17278L30.0898 2.14292L33.8956 1.08997Z" fill="white"/>
<path d="M42.7482 0L42.9797 3.19118C43.0862 4.65977 42.3315 5.77277 40.9102 5.87437C39.4888 5.97597 38.5953 4.98305 38.4795 3.50984L38.248 0.323273L39.3083 0.244765L39.5444 3.56988C39.5364 3.73939 39.5645 3.90868 39.6268 4.06658C39.6892 4.22448 39.7844 4.3674 39.9061 4.48592C40.0279 4.60444 40.1735 4.69587 40.3332 4.75417C40.493 4.81248 40.6634 4.83634 40.8331 4.82418C41.0028 4.81202 41.168 4.76411 41.3177 4.68362C41.4675 4.60314 41.5985 4.49189 41.702 4.35722C41.8055 4.22256 41.8793 4.06753 41.9184 3.90236C41.9575 3.73719 41.961 3.56564 41.9288 3.399L41.688 0.0738913L42.7482 0Z" fill="white"/>
<path d="M49.6372 6.08264L48.6325 4.0691L47.9983 3.99059L47.7621 5.83787L46.7065 5.69932L47.4242 0.157471L49.4011 0.411474C50.841 0.596202 51.4058 1.45981 51.253 2.53585C51.2085 2.92792 51.0393 3.29548 50.7702 3.58468C50.5011 3.87388 50.1462 4.06954 49.7576 4.14299L50.9058 6.25351L49.6372 6.08264ZM48.1372 2.93302L49.1928 3.06695C49.3044 3.09116 49.4198 3.09284 49.5321 3.07188C49.6445 3.05093 49.7515 3.00776 49.8468 2.94493C49.9422 2.8821 50.0239 2.80087 50.0873 2.70602C50.1507 2.61118 50.1945 2.50464 50.2159 2.39268C50.2304 2.27691 50.22 2.15939 50.1854 2.04794C50.1508 1.93649 50.0928 1.83366 50.0153 1.74629C49.9378 1.65892 49.8425 1.58901 49.7358 1.54121C49.6291 1.4934 49.5134 1.4688 49.3965 1.46904L48.3409 1.33512L48.1372 2.93302Z" fill="white"/>
<path d="M56.6419 3.07571L56.2669 4.21641L58.1558 4.83987L57.8225 5.85126L55.9335 5.2278L55.5585 6.3685L57.8271 7.11664L57.5077 8.12803L54.2344 7.04737L55.9891 1.73181L59.267 2.80786L58.9336 3.82386L56.6419 3.07571Z" fill="white"/>
<path d="M71.5362 8.4054L71.8417 12.9035L67.3925 13.7163L67.1517 12.511L68.5407 12.2708C68.7953 12.2247 69.0407 12.1877 69.2722 12.1692C69.4956 12.1508 69.7201 12.1508 69.9435 12.1692L66.7026 9.65693L67.4156 8.73329L70.6565 11.2456C70.6042 11.1057 70.5624 10.9622 70.5315 10.8161C70.4961 10.6641 70.4713 10.5098 70.4574 10.3543C70.4574 10.2019 70.4204 10.0264 70.4065 9.84166L70.3 8.4562L71.5362 8.4054Z" fill="#FFCD1E"/>
<path d="M79.083 28.7714L80.2497 26.8502L79.9812 26.273L78.2867 27.0581L77.8237 26.0975L82.9165 23.7422L83.7592 25.5433C84.3703 26.8549 83.9397 27.7924 82.9582 28.2496C82.6016 28.4213 82.1992 28.4745 81.8101 28.4014C81.4209 28.3282 81.0655 28.1326 80.7961 27.8432L79.6201 29.9398L79.083 28.7714ZM80.935 25.825L81.3979 26.7856C81.437 26.893 81.4972 26.9916 81.5751 27.0754C81.653 27.1592 81.747 27.2266 81.8515 27.2735C81.956 27.3205 82.0688 27.346 82.1834 27.3487C82.2979 27.3513 82.4118 27.331 82.5184 27.289C82.6228 27.2387 82.7153 27.1669 82.7898 27.0783C82.8644 26.9897 82.9192 26.8863 82.9507 26.775C82.9822 26.6637 82.9897 26.547 82.9726 26.4326C82.9556 26.3182 82.9143 26.2087 82.8517 26.1113L82.3887 25.1507L80.935 25.825Z" fill="white"/>
<path d="M84.6618 37.7033C84.0985 37.8265 83.5112 37.7806 82.974 37.5715C82.4368 37.3624 81.9736 36.9993 81.6429 36.528C81.3122 36.0568 81.1287 35.4984 81.1155 34.9234C81.1023 34.3483 81.2601 33.7821 81.5689 33.2963C81.8778 32.8105 82.3238 32.4267 82.8509 32.1934C83.378 31.96 83.9625 31.8874 84.5309 31.9848C85.0993 32.0823 85.626 32.3453 86.0448 32.7408C86.4635 33.1363 86.7556 33.6466 86.8841 34.2073C87.0539 34.9649 86.9152 35.7587 86.4985 36.4143C86.0818 37.0698 85.4211 37.5335 84.6618 37.7033ZM84.4257 36.6688C84.7811 36.5841 85.1035 36.3963 85.3521 36.1291C85.6008 35.8619 85.7646 35.5274 85.823 35.1675C85.8815 34.8076 85.8318 34.4386 85.6804 34.1068C85.529 33.775 85.2825 33.4953 84.9721 33.303C84.6616 33.1107 84.301 33.0142 83.9358 33.0259C83.5705 33.0375 83.2168 33.1567 82.9193 33.3685C82.6218 33.5802 82.3938 33.875 82.2639 34.2158C82.134 34.5565 82.1081 34.928 82.1895 35.2834C82.2429 35.5223 82.3434 35.7482 82.4852 35.948C82.6269 36.1478 82.807 36.3175 83.0151 36.4473C83.2232 36.5771 83.455 36.6643 83.6972 36.7039C83.9393 36.7435 84.1869 36.7348 84.4257 36.6781V36.6688Z" fill="white"/>
<path d="M83.7867 45.7804L82.8237 46.2007C82.3838 45.7053 82.1344 45.0704 82.12 44.4088C82.1139 44.0237 82.1839 43.6412 82.3261 43.283C82.4682 42.9249 82.6796 42.5982 82.9483 42.3216C83.217 42.045 83.5377 41.8239 83.8921 41.671C84.2465 41.518 84.6276 41.4361 85.0136 41.4301C85.3997 41.424 85.7832 41.4938 86.1422 41.6356C86.5012 41.7774 86.8287 41.9883 87.106 42.2563C87.3833 42.5244 87.605 42.8442 87.7584 43.1977C87.9117 43.5512 87.9938 43.9313 87.9999 44.3164C88.0099 44.9765 87.7833 45.6185 87.3609 46.1268L86.3841 45.7388C86.7424 45.3671 86.9387 44.869 86.9304 44.3534C86.9123 44.054 86.8214 43.7635 86.6655 43.507C86.5096 43.2505 86.2935 43.0357 86.0358 42.8812C85.778 42.7267 85.4865 42.6371 85.1862 42.6202C84.886 42.6033 84.5862 42.6596 84.3127 42.7841C84.0391 42.9087 83.8001 43.0978 83.6163 43.3352C83.4325 43.5725 83.3093 43.851 83.2575 44.1464C83.2058 44.4419 83.2269 44.7455 83.3191 45.031C83.4113 45.3165 83.5718 45.5753 83.7867 45.785V45.7804Z" fill="white"/>
<path d="M81.0317 53.9916L81.2956 52.6754L84.1106 51.0914L81.7031 50.6296L81.9114 49.5905L87.4162 50.6757L87.2079 51.7148L84.9301 51.253L86.8283 53.636L86.5644 54.9476L84.3976 52.0935L81.0317 53.9916Z" fill="white"/>
<path d="M83.8327 59.769L82.7169 59.3072L81.9623 61.1545L80.9761 60.7527L81.7261 58.9054L80.615 58.4436L79.689 60.6465L78.6982 60.2447L79.9992 57.0581L85.1985 59.1732L83.8929 62.3598L82.9067 61.958L83.8327 59.769Z" fill="white"/>
<path d="M79.7308 69.5965L78.8511 69.0054L79.6428 67.7816L75.8232 65.3247L76.3973 64.438L80.2169 66.8949L81.0133 65.6711L81.9114 66.2483L79.7308 69.5965Z" fill="white"/>
<path d="M71.1473 73.4759C70.4204 72.7831 70.3741 71.6794 71.3973 70.6172C71.6835 70.3062 72.0312 70.0579 72.4185 69.8878C72.8058 69.7176 73.2242 69.6295 73.6474 69.6289L73.9529 70.6588C73.6208 70.6493 73.2902 70.7075 72.9813 70.8298C72.6724 70.952 72.3918 71.1359 72.1566 71.37C71.6473 71.9011 71.5501 72.3952 71.8325 72.6677C72.1149 72.9402 72.5362 72.7878 73.1196 72.3398C74.3928 71.3654 75.1984 71.3884 75.8095 71.975C76.4206 72.5615 76.5549 73.7299 75.5919 74.7459C75.1152 75.2577 74.4723 75.5849 73.777 75.6695L73.4251 74.7136C73.9537 74.6472 74.4438 74.4028 74.8141 74.0208C75.2076 73.6144 75.4345 73.148 75.1104 72.8339C74.7863 72.5199 74.5085 72.7046 73.8511 73.1895C72.8835 73.8869 72.013 74.3071 71.1473 73.4759Z" fill="white"/>
<path d="M69.0826 78.8236L68.3881 77.8445L66.763 78.9899L66.1473 78.1216L67.7723 76.9763L67.0779 75.9973L65.1241 77.3827L64.5083 76.5099L67.3279 74.524L70.5687 79.0915L67.7492 81.0819L67.1334 80.2091L69.0826 78.8236Z" fill="white"/>
<path d="M58.6885 80.6756L60.8414 79.7196L60.7858 78.5789L61.8784 78.1171L62.0497 84.1715L61.1701 84.5595L56.7856 80.3708L57.8737 79.9089L58.6885 80.6756ZM59.4941 81.4837L61.0127 82.9985L60.9015 80.8603L59.4941 81.4837Z" fill="white"/>
<path d="M52.0259 87.3767L51.7759 86.3376L53.1972 86.0005L52.1463 81.5901L53.1787 81.3453L54.2297 85.7557L55.651 85.4186L55.901 86.4531L52.0259 87.3767Z" fill="white"/>
</svg>
